{"title":"Vera S03","uid":10505946,"size":2650240726,"categoryP":"video","categoryS":"tv_shows","magnet":"?xt=urn:btih:a7c019d6fc002a3e27fc0d321bfb9ddad08e60ff&amp;dn=Vera+S03&amp;tr=udp%3A%2F%2Ftracker.openbittorrent.com%3A80&amp;tr=udp%3A%2F%2Fopen.demonii.com%3A1337&amp;tr=udp%3A%2F%2Ftracker.coppersurfer.tk%3A6969&amp;tr=udp%3A%2F%2Fexodus.desync.com%3A6969","seeders":23,"leechers":10,"uploader":"RedBaron58","files":4,"time":1404768233,"description":"Vera Season 3 (2013) UK Crime Drama x264 mp4\n &lt;a href=&quot;\nhttp://www.imdb.com/title/tt1693592/&quot; rel=&quot;nofollow&quot; target=&quot;_NEW&quot;&gt;\nhttp://www.imdb.com/title/tt1693592/&lt;/a&gt;\n\n\nThank you for your kind comments and thumbs ups on my other torrents, your feedback is welcome.\n\n\nAbout the Series:\nThe central character is Detective Chief Inspector Vera Stanhope. Who is obsessive about her work \nand driven by her own demons. If she's lonely she doesn't show it and faces the world with caustic wit, \nguile and courage. Her trusted and long suffering colleague is Sergeant Joe Ashworth. \nTogether they approach every new case with unparalleled gusto and professionalism.\n\n\nI hope you enjoy.\n\n\nTechnical: (All episode encoded to same settings)\n\nGeneral\nComplete name                            : G:Vera S03Vera S03E01 Castles in the Air x264 RB58.mp4\nFormat                                   : MPEG-4\nFormat profile                           : Base Media / Version 2\nCodec ID                                 : mp42\nFile size                                : 635 MiB\nDuration                                 : 1h 28mn\nOverall bit rate mode                    : Variable\nOverall bit rate                         : 1 000 Kbps\nEncoded date                             : UTC 2014-07-05 14:30:11\nTagged date                              : UTC 2014-07-05 14:51:22\nWriting application                      : HandBrake 0.9.8 2012071700\n\nVideo\nID                                       : 1\nFormat                                   : AVC\nFormat/Info                              : Advanced Video Codec\nFormat profile                           : &lt;a class=&quot;__cf_email__&quot; href=&quot;/cdn-cgi/l/email-protection&quot; data-cfemail=&quot;ffb29e9691bfb3ccd1cf&quot;&gt;[email&amp;#160;protected]&lt;/a&gt;&lt;script cf-hash='f9e31' type=&quot;text/javascript&quot;&gt;\n/* &lt;![CDATA[ */!function(){try{var t=&quot;currentScript&quot;in document?document.currentScript:function(){for(var t=document.getElementsByTagName(&quot;script&quot;),e=t.length;e--;)if(t[e].getAttribute(&quot;cf-hash&quot;))return t[e]}();if(t&amp;&amp;t.previousSibling){var e,r,n,i,c=t.previousSibling,a=c.getAttribute(&quot;data-cfemail&quot;);if(a){for(e=&quot;&quot;,r=parseInt(a.substr(0,2),16),n=2;a.length-n;n+=2)i=parseInt(a.substr(n,2),16)^r,e+=String.fromCharCode(i);e=document.createTextNode(e),c.parentNode.replaceChild(e,c)}}}catch(u){}}();/* ]]&gt; */&lt;/script&gt;\nFormat settings, CABAC                   : Yes\nFormat settings, ReFrames                : 4 frames\nCodec ID                                 : avc1\nCodec ID/Info                            : Advanced Video Coding\nDuration                                 : 1h 28mn\nBit rate mode                            : Variable\nBit rate                                 : 900 Kbps\nWidth                                    : 720 pixels\nHeight                                   : 568 pixels\nDisplay aspect ratio                     : 16:9\nFrame rate mode                          : Constant\nFrame rate                               : 25.000 fps\nColor space                              : YUV\nChroma subsampling                       : 4:2:0\nBit depth                                : 8 bits\nScan type                                : Progressive\nBits/(Pixel*Frame)                       : 0.088\nStream size                              : 571 MiB (90%)\nWriting library                          : x264 core 120\nEncoding settings                        : cabac=1 / ref=1 / deblock=1:0:0\nEncoded date                             : UTC 2014-07-05 14:30:11\nTagged date                              : UTC 2014-07-05 14:51:22\nColor primaries                          : BT.601 NTSC\nTransfer characteristics                 : BT.709\nMatrix coefficients                      : BT.601\n\nAudio\nID                                       : 2\nFormat                                   : AAC\nFormat/Info                              : Advanced Audio Codec\nFormat profile                           : LC\nCodec ID                                 : 40\nDuration                                 : 1h 28mn\nBit rate mode                            : Variable\nBit rate                                 : 96.0 Kbps\nMaximum bit rate                         : 145 Kbps\nChannel(s)                               : 2 channels\nChannel positions                        : Front: L R\nSampling rate                            : 48.0 KHz\nCompression mode                         : Lossy\nDelay relative to video                  : 80ms\nStream size                              : 60.9 MiB (10%)\nLanguage                                 : English\nEncoded date                             : UTC 2014-07-05 14:30:11\nTagged date                              : UTC 2014-07-05 14:51:20","torrent":{"xt":"urn:btih:a7c019d6fc002a3e27fc0d321bfb9ddad08e60ff","amp;dn":"Vera+S03","amp;tr":["udp%3A%2F%2Ftracker.openbittorrent.com%3A80","udp%3A%2F%2Fopen.demonii.com%3A1337","udp%3A%2F%2Ftracker.coppersurfer.tk%3A6969","udp%3A%2F%2Fexodus.desync.com%3A6969"],"infoHash":"a7c019d6fc002a3e27fc0d321bfb9ddad08e60ff","infoHashBuffer":{"type":"Buffer","data":[167,192,25,214,252,0,42,62,39,252,13,50,27,251,157,218,208,142,96,255]},"announce":[],"urlList":[]}}